<svg xmlns="http://www.w3.org/2000/svg" version="1.1" xmlns:xlink="http://www.w3.org/1999/xlink" xmlns:svgjs="http://svgjs.dev/svgjs" width="1000" height="623" viewBox="0 0 1000 623"><g transform="matrix(1,0,0,1,-0.6060606060606233,0.2522267206477409)"><svg viewBox="0 0 396 247" data-background-color="#6936f5" preserveAspectRatio="xMidYMid meet" height="623" width="1000" xmlns="http://www.w3.org/2000/svg" xmlns:xlink="http://www.w3.org/1999/xlink"><g id="tight-bounds" transform="matrix(1,0,0,1,0.2400000000000091,-0.09999999999999432)"><svg viewBox="0 0 395.52 247.2" height="247.2" width="395.52"><g><svg></svg></g><g><svg viewBox="0 0 395.52 247.2" height="247.2" width="395.52"><g transform="matrix(1,0,0,1,75.54432000000001,103.55632401909902)"><svg viewBox="0 0 244.43135999999996 40.08735196180194" height="40.08735196180194" width="244.43135999999996"><g><svg viewBox="0 0 244.43135999999996 40.08735196180194" height="40.08735196180194" width="244.43135999999996"><g><svg viewBox="0 0 244.43135999999996 40.08735196180194" height="40.08735196180194" width="244.43135999999996"><g><svg viewBox="0 0 244.43135999999996 40.08735196180194" height="40.08735196180194" width="244.43135999999996"><g><svg viewBox="0 0 244.43135999999996 40.08735196180194" height="40.08735196180194" width="244.43135999999996"><g><svg viewBox="0 0 244.43135999999996 40.08735196180194" height="40.08735196180194" width="244.43135999999996"><g transform="matrix(1,0,0,1,0,0)"><svg width="244.43135999999996" viewBox="1 -39 240.8300018310547 39.5" height="40.08735196180194" data-palette-color="#ffffff"><path d="M23.25-1.2Q23.25-0.65 20.18-0.33 17.1 0 14.03 0 10.95 0 10.13-0.28 9.3-0.55 9.3-1.2L9.3-1.2 9.3-22.7 2.35-22.7Q1.8-22.7 1.4-24.1 1-25.5 1-28.28 1-31.05 1.6-33.27 2.2-35.5 3.2-35.5L3.2-35.5 30.25-35.5Q31-35.5 31.28-34.1 31.55-32.7 31.55-30.05 31.55-27.4 31-25.05 30.45-22.7 29.5-22.7L29.5-22.7 23.25-22.7 23.25-1.2ZM49.1-11.3L47.45-11.3Q47.45-8.05 50.55-8.05L50.55-8.05Q52.35-8.05 55.25-9.28 58.15-10.5 58.3-10.5L58.3-10.5Q59.25-10.5 60.8-7.65 62.35-4.8 62.35-3.45L62.35-3.45Q62.35-1.5 58.35-0.5 54.35 0.5 50.52 0.5 46.7 0.5 44.12-0.1 41.55-0.7 39.92-1.63 38.3-2.55 37.07-3.9 35.85-5.25 35.25-6.48 34.65-7.7 34.3-9.2L34.3-9.2Q33.8-11.4 33.8-13.75L33.8-13.75Q33.8-22.85 38.55-26.3L38.55-26.3Q40.9-28.05 43.8-28.75 46.7-29.45 50.65-29.45L50.65-29.45Q63.3-29.45 63.3-20.65L63.3-20.65Q63.3-11.3 49.1-11.3L49.1-11.3ZM47.35-18.6L47.35-18.6 47.35-15.3Q48.8-15.3 49.72-16.45 50.65-17.6 50.65-19.25L50.65-19.25Q50.65-22.25 49.1-22.25L49.1-22.25Q47.35-22.25 47.35-18.6ZM111.85-16.5L111.85-16.5 111.85-1.2Q111.85-0.65 109.02-0.33 106.2 0 103.17 0 100.15 0 99.25-0.28 98.35-0.55 98.35-1.2L98.35-1.2 98.35-15.05Q98.35-22.2 96.9-22.2L96.9-22.2Q96.55-22.2 96.2-21.9 95.85-21.6 95.85-20.85L95.85-20.85 95.85-1.2Q95.85-0.65 93.02-0.33 90.2 0 87.15 0 84.1 0 83.22-0.28 82.35-0.55 82.35-1.2L82.35-1.2 82.35-15.05Q82.35-20.6 81.65-21.7L81.65-21.7Q81.3-22.2 80.75-22.2L80.75-22.2Q79.8-22.2 79.8-20.85L79.8-20.85 79.8-1.2Q79.8-0.65 76.95-0.33 74.1 0 71.07 0 68.05 0 67.17-0.28 66.3-0.55 66.3-1.2L66.3-1.2 66.3-25.85Q66.3-26.9 69.17-27.95 72.05-29 75.25-29 78.45-29 78.85-27.15L78.85-27.15 79.3-24.95 79.65-24.95Q81.1-27.8 84.45-29L84.45-29Q85.85-29.45 88.05-29.45L88.05-29.45Q92.45-29.45 94.45-24.95L94.45-24.95Q95.1-26.45 97.7-27.95 100.3-29.45 103.45-29.45L103.45-29.45Q108.4-29.45 110.12-26.38 111.85-23.3 111.85-16.5ZM129.09-25.85L129.09-25.85 129.09-1.2Q129.09-0.65 126.22-0.33 123.34 0 120.32 0 117.29 0 116.42-0.28 115.54-0.55 115.54-1.2L115.54-1.2 115.54-24.95Q115.54-26.05 118.37-27.13 121.19-28.2 124.54-28.2L124.54-28.2Q129.09-28.2 129.09-25.85ZM122.29-39L122.29-39Q125.59-39 127.47-38.02 129.34-37.05 129.34-34.5L129.34-34.5Q129.34-30 122.34-30 115.34-30 115.34-34.5 115.34-39 122.29-39ZM142.24 0.45L142.24 0.45Q140.39 0.45 138.79-0.1 137.19-0.65 136.17-1.45 135.14-2.25 134.39-3.6 133.64-4.95 133.24-6.18 132.84-7.4 132.64-9.2L132.64-9.2Q132.34-11.85 132.34-15.25L132.34-15.25Q132.34-22.2 134.89-25.83 137.44-29.45 141.89-29.45L141.89-29.45Q146.44-29.45 148.49-27.3L148.49-27.3Q148.94-26.8 149.19-26.1L149.19-26.1 149.59-26.1 148.99-29.55 148.99-35.8Q148.99-36.9 151.79-37.95 154.59-39 157.84-39L157.84-39Q161.24-39 162.19-37.7L162.19-37.7Q162.54-37.2 162.54-36.7L162.54-36.7 162.54-1.2Q162.54-0.65 159.77-0.33 156.99 0 154.42 0 151.84 0 151.12-0.18 150.39-0.35 150.22-0.55 150.04-0.75 149.99-1.2L149.99-1.2 149.59-4.05 149.19-4.05Q148.74-2.3 147.39-1.1L147.39-1.1Q145.69 0.45 142.24 0.45ZM147.84-6.85L147.84-6.85Q148.64-6.85 149.04-7.85L149.04-7.85 149.04-21.2Q149.04-21.7 148.52-21.98 147.99-22.25 147.59-22.25L147.59-22.25Q145.89-22.25 145.89-14.45L145.89-14.45Q145.89-10.3 146.37-8.58 146.84-6.85 147.84-6.85ZM179.79-25.85L179.79-25.85 179.79-1.2Q179.79-0.65 176.91-0.33 174.04 0 171.01 0 167.99 0 167.11-0.28 166.24-0.55 166.24-1.2L166.24-1.2 166.24-24.95Q166.24-26.05 169.06-27.13 171.89-28.2 175.24-28.2L175.24-28.2Q179.79-28.2 179.79-25.85ZM172.99-39L172.99-39Q176.29-39 178.16-38.02 180.04-37.05 180.04-34.5L180.04-34.5Q180.04-30 173.04-30 166.04-30 166.04-34.5 166.04-39 172.99-39ZM197.04-15.8L197.04-15.8 197.04-1.2Q197.04-0.65 194.21-0.33 191.39 0 188.36 0 185.34 0 184.44-0.28 183.54-0.55 183.54-1.2L183.54-1.2 183.54-25.85Q183.54-26.8 186.31-27.9 189.09-29 192.36-29 195.64-29 196.04-27.2L196.04-27.2 196.54-24.9 196.89-24.9Q197.59-26.8 200.24-28.13 202.89-29.45 205.54-29.45 208.19-29.45 209.26-28.6 210.34-27.75 210.34-26.43 210.34-25.1 210.14-23.05 209.94-21 209.16-18.6 208.39-16.2 207.14-16.2L207.14-16.2Q206.64-16.2 203.99-16.95 201.34-17.7 199.61-17.7 197.89-17.7 197.46-17.2 197.04-16.7 197.04-15.8ZM227.63-11.3L225.98-11.3Q225.98-8.05 229.08-8.05L229.08-8.05Q230.88-8.05 233.78-9.28 236.68-10.5 236.83-10.5L236.83-10.5Q237.78-10.5 239.33-7.65 240.88-4.8 240.88-3.45L240.88-3.45Q240.88-1.5 236.88-0.5 232.88 0.5 229.06 0.5 225.23 0.5 222.66-0.1 220.08-0.7 218.46-1.63 216.83-2.55 215.61-3.9 214.38-5.25 213.78-6.48 213.18-7.7 212.83-9.2L212.83-9.2Q212.33-11.4 212.33-13.75L212.33-13.75Q212.33-22.85 217.08-26.3L217.08-26.3Q219.43-28.05 222.33-28.75 225.23-29.45 229.18-29.45L229.18-29.45Q241.83-29.45 241.83-20.65L241.83-20.65Q241.83-11.3 227.63-11.3L227.63-11.3ZM225.88-18.6L225.88-18.6 225.88-15.3Q227.33-15.3 228.26-16.45 229.18-17.6 229.18-19.25L229.18-19.25Q229.18-22.25 227.63-22.25L227.63-22.25Q225.88-22.25 225.88-18.6Z" opacity="1" transform="matrix(1,0,0,1,0,0)" fill="#ffffff" class="undefined-text-0" data-fill-palette-color="primary" id="text-0"></path></svg></g></svg></g></svg></g></svg></g></svg></g></svg></g></svg></g><g><path d="M245.816 0c68.262 0 123.6 55.338 123.6 123.6 0 68.262-55.338 123.6-123.6 123.6-59.777 0-109.643-42.435-121.117-98.824l1.846 0c11.445 55.384 60.496 97.017 119.271 97.016 67.264 0 121.792-54.528 121.792-121.792 0-67.264-54.528-121.792-121.792-121.792-58.775 0-107.826 41.633-119.271 97.016l-1.846 0c11.473-56.389 61.339-98.824 121.117-98.824z" fill="#ffffff" stroke="transparent" data-fill-palette-color="tertiary"></path></g></svg></g><defs></defs></svg><rect width="395.52" height="247.2" fill="none" stroke="none" visibility="hidden"></rect></g></svg></g></svg>