<svg xmlns="http://www.w3.org/2000/svg" version="1.1" xmlns:xlink="http://www.w3.org/1999/xlink" xmlns:svgjs="http://svgjs.dev/svgjs" width="1000" height="803" viewBox="0 0 1000 803"><g transform="matrix(1,0,0,1,0,0)"><svg viewBox="0 0 448 360" data-background-color="#ffffff" preserveAspectRatio="xMidYMid meet" height="803" width="1000" xmlns="http://www.w3.org/2000/svg" xmlns:xlink="http://www.w3.org/1999/xlink"><g id="tight-bounds" transform="matrix(1,0,0,1,0,0)"><svg viewBox="0 0 448 360" height="360" width="448"><g><svg></svg></g><g><svg viewBox="0 0 448 360" height="360" width="448"><g><path xmlns="http://www.w3.org/2000/svg" d="M193.855 44.683c1.378 0 2.494 1.116 2.495 2.494 0 1.378-1.116 2.494-2.495 2.495h-23.846l-17.167 17.167c-0.973 0.973-2.551 0.973-3.53 0-0.973-0.973-0.973-2.551 0-3.529l13.644-13.645h-40.378c-11.518 0-19.151 2.688-23.815 8.113-4.739 5.519-6.66 14.056-6.66 25.63 0 0.069 0 0.137-0.006 0.206l0.212 36.692 14.692-14.692c0.973-0.973 2.551-0.973 3.53 0 0.973 0.973 0.973 2.551 0 3.53l-18.178 18.178c0.206 35.832 0.193 71.358-0.013 107.19 25.486 25.2 50.617 50.312 75.811 75.791h25.38c1.378 0 2.494 1.116 2.495 2.495 0 1.378-1.116 2.494-2.495 2.494h-20.448l25.942 26.241 0.006-0.006c8.188 8.188 15.577 12.859 22.824 13.413 7.146 0.543 14.442-2.956 22.586-11.093l28.555-28.555h-20.722c-1.378 0-2.494-1.116-2.495-2.494 0-1.378 1.116-2.494 2.495-2.495h25.711l16.625-16.625c0.973-0.973 2.551-0.973 3.529 0 0.973 0.973 0.973 2.551 0 3.53l-13.101 13.102h40.377c11.518 0 19.151-2.688 23.815-8.113 4.739-5.519 6.66-14.056 6.66-25.63h0.013l-0.212-36.898-16.014 16.014c-0.973 0.973-2.551 0.973-3.53 0-0.973-0.973-0.973-2.551 0-3.53l19.5-19.5c-0.206-35.832-0.193-71.358 0.013-107.19-25.486-25.2-50.617-50.312-75.811-75.791h-26.147c-1.378 0-2.494-1.116-2.495-2.495 0-1.378 1.116-2.494 2.495-2.494h21.215l-25.824-26.123c-0.044-0.037-0.081-0.075-0.124-0.112-8.188-8.188-15.577-12.859-22.824-13.413-7.146-0.543-14.442 2.956-22.586 11.093l-28.555 28.555h18.858zM122.578 44.683h45.367l32.078-32.078c9.248-9.248 17.81-13.195 26.484-12.534 8.568 0.649 16.956 5.824 25.985 14.854 0.05 0.05 0.094 0.094 0.137 0.143l29.278 29.615h43.508c13.071 0 21.919 3.268 27.594 9.871 5.6 6.517 7.864 16.101 7.864 28.867 0 0.081-0.006 0.156-0.012 0.23l-0.225 39.742 28.43 28.112 0.006-0.006c9.03 9.03 14.206 17.411 14.854 25.985 0.661 8.674-3.293 17.236-12.534 26.484l-30.768 30.768 0.237 41.843h0.012c0 12.765-2.27 22.35-7.864 28.867-5.675 6.604-14.524 9.872-27.594 9.871h-45.366l-32.078 32.078c-9.248 9.248-17.81 13.195-26.484 12.534-8.568-0.649-16.956-5.824-25.985-14.854l0.006-0.006-29.421-29.758h-43.509c-13.071 0-21.919-3.268-27.594-9.872-5.6-6.517-7.864-16.101-7.863-28.866h0.012l0.231-39.972-28.293-27.969c-0.05-0.044-0.1-0.087-0.143-0.137-9.03-9.03-14.206-17.411-14.854-25.985-0.661-8.674 3.293-17.236 12.534-26.484l30.768-30.768-0.237-41.607c-0.006-0.075-0.012-0.156-0.012-0.23 0-12.765 2.27-22.35 7.864-28.867 5.675-6.604 14.524-9.872 27.594-9.871zM87.682 179.997l-0.274-47.724-27.276 27.276c-8.138 8.138-11.636 15.44-11.094 22.587 0.549 7.246 5.226 14.642 13.413 22.823 0.037 0.037 0.081 0.081 0.113 0.125l24.837 24.551 0.281-49.644zM92.303 241.483l-0.2 35.09h0.013c0 11.58 1.921 20.117 6.66 25.63 4.664 5.432 12.297 8.113 23.815 8.113h38.576l-33.55-33.936-35.308-34.903zM325.415 49.672h-38.575l33.549 33.936 35.308 34.902 0.2-34.884c-0.006-0.069-0.006-0.137-0.007-0.205 0-11.58-1.921-20.117-6.66-25.63-4.664-5.432-12.297-8.113-23.815-8.113zM360.599 130.352l-0.281 49.645 0.274 47.724 27.276-27.276c8.138-8.138 11.636-15.44 11.094-22.587-0.549-7.252-5.226-14.642-13.413-22.824l0.006-0.006-24.956-24.669z" fill="#0063db" fill-rule="nonzero" stroke="none" stroke-width="1" stroke-linecap="butt" stroke-linejoin="miter" stroke-miterlimit="10" stroke-dasharray="" stroke-dashoffset="0" font-family="none" font-weight="none" font-size="none" text-anchor="none" style="mix-blend-mode: normal" data-fill-palette-color="tertiary"></path></g><g transform="matrix(1,0,0,1,112,121.14867617107943)"><svg viewBox="0 0 224 117.70264765784114" height="117.70264765784114" width="224"><g><svg viewBox="0 0 224 117.70264765784114" height="117.70264765784114" width="224"><g><svg viewBox="0 0 224 117.70264765784114" height="117.70264765784114" width="224"><g><svg viewBox="0 0 224 117.70264765784114" height="117.70264765784114" width="224"><g><svg viewBox="0 0 224 117.70264765784114" height="117.70264765784114" width="224"><g><svg viewBox="0 0 224 117.70264765784114" height="117.70264765784114" width="224"><g transform="matrix(1,0,0,1,0,0)"><svg width="224" viewBox="-0.39000001549720764 -37.0099983215332 71.91999816894531 37.78999710083008" height="117.70264765784114" data-palette-color="#0063db"><path d="M-0.39-29.25L-0.39-29.25Q-0.39-29.69-0.34-30.55-0.29-31.42-0.29-31.74L-0.29-31.74Q-0.29-31.86-0.34-32.62-0.39-33.37-0.39-33.94L-0.39-33.94Q-0.39-36.52 0.1-36.52L0.1-36.52Q0.29-36.52 0.44-36.47L0.44-36.47Q5.54-36.47 15.56-36.6 25.59-36.72 30.57-36.72L30.57-36.72Q31.81-36.72 32.14-36.5 32.47-36.28 32.47-35.64L32.47-35.64 32.47-34.96Q32.47-33.69 32.5-31.21 32.52-28.74 32.52-27.44L32.52-27.44Q32.52-26.17 31.84-26.17L31.84-26.17Q30.47-26.17 27.76-26.22 25.05-26.27 23.68-26.27L23.68-26.27 23.68-0.1Q23.51 0.63 22.85 0.68L22.85 0.68Q22 0.68 20.36 0.66 18.73 0.63 17.87 0.63L17.87 0.63Q17.82 0.63 17.77 0.68L17.77 0.68Q16.7 0.68 14.76 0.66 12.82 0.63 11.87 0.63L11.87 0.63 10.4 0.63Q9.91 0.68 8.98 0.68L8.98 0.68 8.01-0.49Q8.01-4.2 8.25-11.52 8.5-18.85 8.5-22.56L8.5-22.56Q8.5-22.73 8.48-23.12 8.47-23.51 8.47-23.75 8.47-24 8.44-24.37 8.4-24.73 8.31-24.96 8.23-25.2 8.11-25.43 7.98-25.66 7.78-25.77 7.57-25.88 7.28-25.88L7.28-25.88 0.29-25.88Q-0.39-26.07-0.39-29.25ZM34.76-1.37L34.76-35.84Q34.76-36.11 35.07-36.32 35.37-36.52 35.96-36.63 36.55-36.74 37.13-36.82 37.72-36.89 38.54-36.91 39.35-36.94 39.89-36.94 40.43-36.94 41.12-36.93 41.82-36.91 41.94-36.91L41.94-36.91 44.68-36.91Q45.48-36.91 46.93-36.96 48.39-37.01 49.07-37.01L49.07-37.01Q60.72-37.01 65.72-33.01L65.72-33.01 66.6-32.23Q67.01-31.84 67.53-31.21 68.04-30.59 68.78-29.33 69.53-28.08 70.11-26.61 70.7-25.15 71.12-23 71.53-20.85 71.53-18.55L71.53-18.55Q71.53-14.99 70.55-11.89 69.58-8.79 67.88-6.52 66.18-4.25 63.9-2.6 61.62-0.95 58.96-0.13 56.3 0.68 53.46 0.68L53.46 0.68 52.68 0.68Q51.63 0.68 49.56 0.63 47.48 0.59 46.43 0.59L46.43 0.59Q40.31 0.59 35.35 0.78L35.35 0.78Q34.76-0.39 34.76-1.37L34.76-1.37ZM49.12-7.81L49.12-7.81Q50.58-7.81 51.76-8.14 52.93-8.47 53.73-9.01 54.54-9.55 55.15-10.38 55.76-11.21 56.11-12.08 56.47-12.96 56.67-14.1 56.88-15.23 56.96-16.25 57.03-17.26 57.03-18.51L57.03-18.51 57.03-20.02Q57.03-24.51 55.25-26.65 53.46-28.78 49.02-28.91L49.02-28.91Q48.9-28.64 48.63-28.17 48.36-27.71 48.24-27.44L48.24-27.44 48.24-26.27Q48.24-25.9 48.22-24.37L48.22-24.37Q47.9-8.01 49.12-7.81Z" opacity="1" transform="matrix(1,0,0,1,0,0)" fill="#0063db" class="undefined-text-0" data-fill-palette-color="primary" id="text-0"></path></svg></g></svg></g></svg></g></svg></g><g></g></svg></g></svg></g></svg></g></svg></g><defs></defs></svg><rect width="448" height="360" fill="none" stroke="none" visibility="hidden"></rect></g></svg></g></svg>